<svg xmlns="http://www.w3.org/2000/svg" xmlns:xlink="http://www.w3.org/1999/xlink" width="72" zoomAndPan="magnify" viewBox="0 0 54 54" height="72" preserveAspectRatio="xMidYMid meet" version="1.0"><defs><clipPath id="f96aee1dd9"><path d="M 0.492188 0 L 53.507812 0 L 53.507812 53.019531 L 0.492188 53.019531 Z M 0.492188 0 " clip-rule="nonzero"/></clipPath><clipPath id="e920deb33e"><path d="M 13.597656 13.105469 L 40.105469 13.105469 L 40.105469 39.617188 L 13.597656 39.617188 Z M 13.597656 13.105469 " clip-rule="nonzero"/></clipPath></defs><g clip-path="url(#f96aee1dd9)"><path fill="#ffffff" d="M 0.492188 0 L 53.507812 0 L 53.507812 234.164062 L 0.492188 234.164062 Z M 0.492188 0 " fill-opacity="1" fill-rule="nonzero"/><path fill="#ffffff" d="M 0.492188 0 L 53.507812 0 L 53.507812 53.019531 L 0.492188 53.019531 Z M 0.492188 0 " fill-opacity="1" fill-rule="nonzero"/><path fill="#fff6e6" d="M 0.492188 0 L 53.507812 0 L 53.507812 53.019531 L 0.492188 53.019531 Z M 0.492188 0 " fill-opacity="1" fill-rule="nonzero"/></g><g clip-path="url(#e920deb33e)"><path fill="#ffaa0d" d="M 26.851562 13.105469 C 19.542969 13.105469 13.597656 19.054688 13.597656 26.363281 C 13.597656 33.671875 19.542969 39.617188 26.851562 39.617188 C 34.160156 39.617188 40.109375 33.671875 40.109375 26.363281 C 40.109375 19.054688 34.160156 13.105469 26.851562 13.105469 Z M 20.570312 20.003906 C 20.804688 20.003906 21.027344 20.050781 21.242188 20.136719 C 21.460938 20.226562 21.648438 20.355469 21.8125 20.519531 C 21.980469 20.683594 22.105469 20.875 22.195312 21.089844 C 22.285156 21.304688 22.328125 21.53125 22.328125 21.761719 C 22.328125 21.996094 22.285156 22.222656 22.195312 22.4375 C 22.105469 22.652344 21.980469 22.84375 21.816406 23.007812 C 21.648438 23.171875 21.460938 23.300781 21.242188 23.390625 C 21.027344 23.476562 20.804688 23.523438 20.570312 23.523438 C 20.335938 23.523438 20.113281 23.476562 19.898438 23.390625 C 19.683594 23.300781 19.492188 23.171875 19.328125 23.007812 C 19.160156 22.84375 19.035156 22.652344 18.945312 22.4375 C 18.855469 22.222656 18.8125 21.996094 18.8125 21.765625 C 18.8125 21.53125 18.855469 21.304688 18.945312 21.089844 C 19.035156 20.875 19.164062 20.683594 19.328125 20.519531 C 19.492188 20.355469 19.683594 20.226562 19.898438 20.140625 C 20.113281 20.050781 20.335938 20.003906 20.570312 20.003906 Z M 34.351562 28.941406 C 34.09375 29.734375 33.71875 30.464844 33.230469 31.140625 C 32.742188 31.8125 32.160156 32.390625 31.484375 32.878906 C 30.8125 33.371094 30.078125 33.742188 29.289062 34 C 28.496094 34.253906 27.683594 34.382812 26.851562 34.382812 C 26.019531 34.382812 25.207031 34.253906 24.417969 34 C 23.625 33.742188 22.894531 33.371094 22.21875 32.878906 C 21.546875 32.390625 20.964844 31.8125 20.476562 31.140625 C 19.984375 30.464844 19.613281 29.734375 19.351562 28.941406 C 19.292969 28.761719 19.308594 28.582031 19.394531 28.414062 C 19.480469 28.242188 19.617188 28.125 19.796875 28.066406 C 19.980469 28.007812 20.15625 28.019531 20.328125 28.109375 C 20.5 28.195312 20.617188 28.328125 20.675781 28.511719 C 20.886719 29.164062 21.195312 29.765625 21.597656 30.320312 C 22.003906 30.875 22.480469 31.351562 23.035156 31.753906 C 23.589844 32.15625 24.195312 32.464844 24.847656 32.675781 C 25.5 32.886719 26.167969 32.992188 26.851562 32.992188 C 27.539062 32.992188 28.207031 32.886719 28.859375 32.675781 C 29.511719 32.464844 30.113281 32.15625 30.667969 31.753906 C 31.222656 31.351562 31.703125 30.875 32.105469 30.320312 C 32.507812 29.765625 32.816406 29.164062 33.03125 28.511719 C 33.089844 28.328125 33.203125 28.195312 33.375 28.109375 C 33.546875 28.019531 33.722656 28.007812 33.90625 28.066406 C 34.089844 28.125 34.222656 28.242188 34.3125 28.414062 C 34.398438 28.582031 34.410156 28.761719 34.351562 28.941406 Z M 33.136719 23.523438 C 32.902344 23.523438 32.675781 23.476562 32.460938 23.390625 C 32.246094 23.300781 32.054688 23.171875 31.890625 23.007812 C 31.726562 22.84375 31.597656 22.652344 31.511719 22.4375 C 31.421875 22.222656 31.375 21.996094 31.375 21.761719 C 31.375 21.53125 31.421875 21.304688 31.511719 21.089844 C 31.597656 20.875 31.726562 20.683594 31.890625 20.519531 C 32.058594 20.355469 32.246094 20.226562 32.460938 20.136719 C 32.679688 20.050781 32.902344 20.003906 33.136719 20.003906 C 33.367188 20.003906 33.59375 20.050781 33.808594 20.136719 C 34.023438 20.226562 34.214844 20.355469 34.378906 20.519531 C 34.542969 20.683594 34.671875 20.875 34.761719 21.089844 C 34.851562 21.304688 34.894531 21.53125 34.894531 21.765625 C 34.894531 21.996094 34.847656 22.222656 34.761719 22.4375 C 34.671875 22.652344 34.542969 22.84375 34.378906 23.007812 C 34.214844 23.171875 34.023438 23.300781 33.808594 23.386719 C 33.59375 23.476562 33.367188 23.523438 33.136719 23.523438 Z M 33.136719 23.523438 " fill-opacity="1" fill-rule="nonzero"/></g></svg>