<?xml version="1.0" encoding="utf-8"?>
<svg width="478" height="469" viewBox="0 0 478 469" fill="none" xmlns="http://www.w3.org/2000/svg">
  <circle cx="212.212" cy="257.126" r="211.474" style="fill: rgb(246, 237, 220);"/>
  <mask id="mask0_1349_23097" style="mask-type:alpha" maskUnits="userSpaceOnUse" x="0" y="0" width="478" height="469">
    <path d="M423.686 257.126C423.686 373.919 329.006 468.599 212.212 468.599C95.4183 468.599 0.738281 373.919 0.738281 257.126C0.738281 140.332 47.9231 0.599365 164.717 0.599365C237.397 0.599365 434.642 36.0317 472.708 91.8744C495.812 125.768 423.686 213.012 423.686 257.126Z" fill="#F7F7FC"/>
  </mask>
  <g mask="url(#mask0_1349_23097)">
    <g opacity="0.7">
      <path fill-rule="evenodd" clip-rule="evenodd" d="M247.503 326.301C247.503 326.301 243.487 294.171 286.862 279.712C330.238 265.254 339.876 272.885 339.876 272.885L335.86 285.737C335.86 285.737 329.033 317.867 297.706 322.284C266.379 326.702 254.331 320.276 247.503 326.301Z" style="fill: rgb(140, 118, 76);"/>
      <path fill-rule="evenodd" clip-rule="evenodd" d="M334.656 347.988H339.877V272.885H334.656L336.062 295.961C336.463 302.527 336.507 309.111 336.194 315.682L334.656 347.988Z" style="fill: rgb(140, 118, 76);"/>
      <path fill-rule="evenodd" clip-rule="evenodd" d="M254.242 216.336C254.242 216.336 270.229 192.026 308.315 207.43C346.402 222.833 348.311 235.132 348.311 235.132L338.304 240.115C338.304 240.115 314.904 258.103 290.909 242.86C266.914 227.616 262.423 216.197 254.242 216.336Z" style="fill: rgb(140, 118, 76);"/>
      <path fill-rule="evenodd" clip-rule="evenodd" d="M343.089 368.873H347.106L348.679 236.295C348.698 234.66 347.621 233.214 346.049 232.765L343.089 231.919C343.089 231.919 344.098 244.238 343.893 259.631C343.696 274.356 342.286 291.878 342.286 304.856C342.286 341.562 343.089 368.873 343.089 368.873Z" style="fill: rgb(140, 118, 76);"/>
      <path fill-rule="evenodd" clip-rule="evenodd" d="M308.55 215.453C325.882 228.904 343.491 237.542 343.491 237.542L338.304 240.115C338.304 240.115 314.904 258.103 290.909 242.86C266.914 227.616 262.423 216.197 254.242 216.336C254.242 216.336 281.641 194.568 308.55 215.453Z" style="fill: rgb(140, 118, 76);"/>
      <path fill-rule="evenodd" clip-rule="evenodd" d="M442.192 273.837C442.192 273.837 431.408 257.52 405.716 267.859C380.024 278.197 378.736 286.453 378.736 286.453L385.486 289.797C385.486 289.797 401.271 301.871 417.458 291.639C433.644 281.408 436.674 273.744 442.192 273.837Z" style="fill: rgb(140, 118, 76);"/>
      <path fill-rule="evenodd" clip-rule="evenodd" d="M382.197 376.882H379.422L378.335 287.46C378.321 286.357 379.066 285.382 380.152 285.078L382.197 284.508C382.197 284.508 381.5 292.817 381.642 303.199C381.778 313.131 382.752 324.95 382.752 333.703C382.752 358.461 382.197 376.882 382.197 376.882Z" style="fill: rgb(140, 118, 76);"/>
      <path fill-rule="evenodd" clip-rule="evenodd" d="M445.191 185.411C445.191 185.411 429.204 161.101 391.117 176.504C353.031 191.908 351.122 204.207 351.122 204.207L361.129 209.19C361.129 209.19 384.529 227.178 408.524 211.934C432.519 196.691 437.01 185.272 445.191 185.411Z" style="fill: rgb(140, 118, 76);"/>
      <path fill-rule="evenodd" clip-rule="evenodd" d="M356.343 343.169H352.327L350.753 205.37C350.734 203.735 351.811 202.289 353.383 201.84L356.343 200.994C356.343 200.994 355.335 213.313 355.54 228.706C355.736 243.431 357.146 260.953 357.146 273.931C357.146 310.637 356.343 343.169 356.343 343.169Z" style="fill: rgb(140, 118, 76);"/>
      <path fill-rule="evenodd" clip-rule="evenodd" d="M363.572 341.964H370.4L373.1 256.611L367.957 176.052C367.977 174.417 366.899 172.971 365.327 172.521L362.367 171.676C362.367 171.676 368.793 235.651 368.793 248.629C368.793 285.335 363.572 341.964 363.572 341.964Z" style="fill: rgb(140, 118, 76);"/>
      <path fill-rule="evenodd" clip-rule="evenodd" d="M286.739 126.602C286.739 126.602 301.321 105.006 335.86 126.694C370.653 148.541 368.238 177.2 368.238 177.2L357.119 178.357C357.119 178.357 328.896 186.994 311.773 164.302C294.649 141.61 294.448 129.342 286.739 126.602Z" style="fill: rgb(140, 118, 76);"/>
      <path fill-rule="evenodd" clip-rule="evenodd" d="M286.739 126.602C286.739 126.602 302.436 115.031 315.779 131.513C322.607 139.947 334.686 146.306 339.877 151.193C353.36 163.888 362.879 177.766 362.879 177.766L357.119 178.357C357.119 178.357 328.896 186.994 311.773 164.302C294.649 141.61 294.448 129.342 286.739 126.602Z" style="fill: rgb(140, 118, 76);"/>
      <path fill-rule="evenodd" clip-rule="evenodd" d="M401.629 454.419H308.452C303.128 454.419 298.813 450.103 298.813 444.78V351.603C298.813 346.28 303.128 341.964 308.452 341.964H401.629C406.952 341.964 411.268 346.28 411.268 351.603V444.78C411.268 450.103 406.952 454.419 401.629 454.419Z" style="fill: rgb(140, 118, 76);"/>
    </g>
    <path fill-rule="evenodd" clip-rule="evenodd" d="M237.419 414.495C257.151 414.958 272.627 431.586 271.696 451.311L261.659 663.384C260.889 679.719 247.229 692.451 230.892 692.068C214.555 691.682 201.507 678.321 201.504 661.969L201.453 449.659C201.448 429.91 217.69 414.031 237.419 414.495Z" fill="#FFE3D3"/>
    <path fill-rule="evenodd" clip-rule="evenodd" d="M153.241 400.309C133.656 397.883 115.914 412.067 113.959 431.718L92.9058 642.981C91.2842 659.253 102.935 673.844 119.155 675.854C135.373 677.862 150.23 666.553 152.622 650.376L183.687 440.355C186.576 420.819 172.826 402.736 153.241 400.309Z" fill="#FFE3D3"/>
    <path fill-rule="evenodd" clip-rule="evenodd" d="M193.469 388.12C189.404 394.503 181.04 396.555 174.486 392.78L47.936 319.922C36.5292 312.841 33.1009 297.799 40.3185 286.473C47.5995 275.046 62.8589 271.867 74.0926 279.436L190.196 369.313C195.983 373.793 197.402 381.947 193.469 388.12Z" fill="#FFE3D3"/>
    <path fill-rule="evenodd" clip-rule="evenodd" d="M179.482 411.415C179.482 411.415 166.017 388.916 175.522 376.724C184.129 365.683 196.172 372.947 196.172 372.947C196.172 372.947 209.288 378.271 220.486 389.329C227.867 396.614 240.493 411.888 237.191 416.285C232.887 422.016 219.603 403.892 215.358 406.92C211.003 410.026 213.468 413.974 216.128 424.798C217.791 431.561 222.09 437.576 222.407 443.58C223.024 455.316 196.867 446.847 179.482 411.415Z" fill="#FFE3D3"/>
    <path d="M204.955 415.829C205.433 415.835 205.825 416.189 205.893 416.648L205.904 416.804L205.909 417.169C205.924 417.654 205.974 418.345 206.078 419.221C206.297 421.058 206.698 423.103 207.325 425.306C209.105 431.556 212.331 437.86 217.367 443.84C217.71 444.246 217.658 444.853 217.252 445.196C216.845 445.539 216.239 445.487 215.896 445.08C210.678 438.884 207.327 432.336 205.475 425.834C204.819 423.529 204.399 421.385 204.168 419.449L204.085 418.689C204.028 418.095 203.997 417.599 203.986 417.21L203.98 416.778C203.987 416.247 204.424 415.822 204.955 415.829Z" fill="#DD936F"/>
    <path d="M195.278 416.751C195.8 416.65 196.304 416.993 196.404 417.515C197.332 422.359 199.13 427.046 201.545 431.469C202.824 433.812 204.195 435.931 205.564 437.786L206.12 438.525C206.299 438.758 206.472 438.978 206.638 439.185L207.129 439.783C207.236 439.909 207.315 440.001 207.366 440.057C207.72 440.453 207.687 441.062 207.291 441.416C206.896 441.771 206.287 441.738 205.933 441.342L205.538 440.88L205.395 440.706C204.978 440.198 204.514 439.604 204.016 438.93C202.597 437.007 201.18 434.816 199.856 432.392C197.352 427.805 195.483 422.933 194.515 417.877C194.415 417.355 194.757 416.851 195.278 416.751Z" fill="#DD936F"/>
    <path d="M186.56 412.851C187.089 412.806 187.555 413.199 187.6 413.728L187.627 413.963C187.66 414.205 187.719 414.564 187.815 415.036C188.044 416.158 188.396 417.477 188.898 418.981C190.344 423.307 192.707 428.227 196.199 433.648C196.487 434.095 196.359 434.69 195.912 434.978C195.466 435.266 194.87 435.138 194.582 434.691C191.004 429.136 188.571 424.07 187.074 419.591C186.546 418.013 186.174 416.619 185.93 415.42L185.82 414.845C185.743 414.412 185.701 414.093 185.683 413.893C185.638 413.363 186.031 412.897 186.56 412.851Z" fill="#DD936F"/>
    <path fill-rule="evenodd" clip-rule="evenodd" d="M256.584 209.192C256.584 209.192 307.636 176.553 259.42 136.821C270.765 108.44 243.821 96.1427 243.821 96.1427C251.383 90.465 262.731 66.8148 233.892 46.4756C233.892 14.3101 206.468 13.2072 206.468 13.2072C206.468 13.2072 167.183 -8.90334 149.014 18.6141C113.658 25.4923 120.441 63.0305 120.441 63.0305C120.441 63.0305 100.115 77.2211 109.571 96.1427C98.225 107.493 96.3328 119.79 104.843 128.306C72.2269 159.525 96.3328 187.906 96.3328 187.906C96.3328 187.906 78.0961 235.721 139.787 235.721C149.714 272.615 212.112 265.52 213.529 234.301C250.402 252.749 256.584 209.192 256.584 209.192Z" style="fill: rgb(95, 63, 4);"/>
    <path fill-rule="evenodd" clip-rule="evenodd" d="M218.47 60.9781C198.08 64.56 191.881 49.1201 191.881 49.1201C191.881 49.1201 183.469 27.3755 181.313 40.7244C180.167 47.8197 169.204 38.4064 164.164 45.9677C160.775 51.0599 169.253 57.6184 158.234 71.1892C151.85 79.0507 177.034 85.3237 161.497 99.8145C161.497 99.8145 171.089 118.753 152.114 124.521L150.78 145.578C150.019 157.619 159.585 167.8 171.64 167.781C183.396 167.764 192.815 158.038 192.469 146.28L191.696 120.085C221.159 120.085 222.598 79.5631 218.47 60.9781Z" fill="#FFE3D3"/>
    <path d="M180.878 82.5482C181.389 82.0369 182.217 82.0366 182.728 82.5477L182.995 82.7927C183.118 82.8988 183.273 83.0281 183.46 83.1758C184.099 83.681 184.85 84.1891 185.704 84.6641C188.598 86.2744 191.9 87.1077 195.534 86.7552C196.254 86.6855 196.893 87.2123 196.963 87.9319C197.032 88.6515 196.506 89.2914 195.787 89.3611C191.582 89.7689 187.763 88.805 184.433 86.9523C182.744 86.0124 181.542 85.0633 180.878 84.3994C180.367 83.8883 180.367 83.0595 180.878 82.5482Z" fill="#E8AD8C"/>
    <path d="M196.961 62.1734C197.438 62.2073 197.809 62.5837 197.851 63.0452L197.852 63.2162C197.827 63.916 197.965 65.0837 198.423 66.6682C199.159 69.2162 200.534 72.0755 202.71 75.1945C203.025 75.6456 202.898 76.2683 202.432 76.5607C200.114 78.0168 198.119 79.1983 196.44 80.1314L195.946 80.4039C195.446 80.6775 195.005 80.9118 194.622 81.1092L193.797 81.5189C193.315 81.7415 192.743 81.5307 192.521 81.0479C192.298 80.5652 192.509 79.9934 192.991 79.7707L193.478 79.5315L194.34 79.084C194.553 78.9705 194.781 78.8475 195.023 78.7148L196.012 78.1652C197.038 77.5858 198.179 76.9162 199.437 76.1508L200.562 75.4563L200.258 74.9932C198.596 72.413 197.451 69.9911 196.742 67.7575L196.574 67.203C196.102 65.5676 195.927 64.2788 195.926 63.3818L195.934 63.0652C195.971 62.5349 196.432 62.1356 196.961 62.1734Z" fill="#E8AD8C"/>
    <path d="M172.066 115.201C172.32 114.734 172.904 114.562 173.371 114.816C179.085 117.927 185.008 119.49 190.953 119.571C191.485 119.578 191.909 120.015 191.902 120.547C191.895 121.078 191.458 121.503 190.927 121.496C184.668 121.41 178.438 119.766 172.451 116.507C171.984 116.253 171.812 115.668 172.066 115.201Z" fill="#E8AD8C"/>
    <path d="M183.273 61.9578C183.968 61.9578 184.531 62.5214 184.531 63.2167C184.531 68.0549 180.89 72.0175 176.343 72.0175C171.797 72.0175 168.157 68.0545 168.157 63.2167C168.157 62.5214 168.721 61.9578 169.415 61.9578C170.11 61.9578 170.674 62.5214 170.674 63.2167C170.674 66.709 173.237 69.4996 176.343 69.4996C179.451 69.4996 182.015 66.7094 182.015 63.2167C182.015 62.5214 182.578 61.9578 183.273 61.9578Z" fill="#27266A"/>
    <path d="M215.022 62.823C215.681 62.823 216.215 63.3577 216.215 64.0173C216.215 68.7971 212.944 72.7535 208.787 72.7535C204.627 72.7535 201.358 68.798 201.358 64.0173C201.358 63.3577 201.893 62.823 202.552 62.823C203.211 62.823 203.745 63.3577 203.745 64.0173C203.745 67.5684 206.057 70.3648 208.787 70.3648C211.515 70.3648 213.828 67.5673 213.828 64.0173C213.828 63.3577 214.362 62.823 215.022 62.823Z" fill="#27266A"/>
    <path d="M169.606 49.1801C174.41 47.152 179.496 47.3559 184.304 48.9016C185.686 49.346 186.719 49.795 187.31 50.1075C187.925 50.432 188.16 51.1937 187.836 51.8086C187.511 52.4235 186.75 52.6589 186.136 52.3343L185.82 52.1805C185.722 52.1352 185.606 52.0832 185.473 52.0254C184.906 51.7788 184.256 51.5309 183.535 51.299C179.249 49.9212 174.751 49.7409 170.585 51.5001C169.823 51.8214 169.082 52.2061 168.361 52.657C167.771 53.0255 166.995 52.8462 166.627 52.2566C166.259 51.667 166.438 50.8902 167.027 50.5217C167.862 49.9995 168.723 49.5532 169.606 49.1801Z" fill="#27266A"/>
    <path fill-rule="evenodd" clip-rule="evenodd" d="M382.737 192.398L408.784 140.096C408.784 140.096 443.765 100.037 453.214 104.493C461.787 109.831 438.822 119.071 432.565 131.012C441.424 131.934 435.404 143.397 435.404 143.397C435.404 143.397 442.419 144.356 438.876 153.928C444.752 158.615 437.652 169.077 437.652 169.077C437.652 169.077 417.138 193.296 399.364 210.771C399.364 210.771 375.01 227.331 382.737 192.398Z" fill="#FFE3D3"/>
    <path fill-rule="evenodd" clip-rule="evenodd" d="M389.371 174.349C389.371 174.349 394.914 155.828 398.294 146.485C401.673 137.143 400.564 119.046 406.804 124.853C410.998 128.759 408.418 138.973 406.95 146.58C405.482 154.186 414.726 174.381 403.414 185.346C395.77 192.753 385.797 192.2 389.371 174.349Z" fill="#FFE3D3"/>
    <path d="M429.423 129.722C429.865 129.392 430.491 129.482 430.821 129.924C431.151 130.366 431.061 130.992 430.619 131.322L430.036 131.771L429.292 132.36C429.031 132.57 428.759 132.791 428.476 133.024C426.862 134.357 425.247 135.788 423.743 137.26C422.047 138.92 420.601 140.528 419.486 142.035C416.677 145.831 416.283 148.426 418.516 149.839C418.983 150.134 419.122 150.751 418.827 151.217C418.532 151.684 417.916 151.823 417.449 151.528C413.894 149.279 414.474 145.45 417.881 140.846C419.067 139.243 420.581 137.561 422.347 135.832C423.895 134.316 425.551 132.848 427.206 131.483L428.043 130.802L429.241 129.86C429.317 129.802 429.378 129.756 429.423 129.722Z" fill="#E8AD8C"/>
    <path d="M432.557 142.604C432.814 143.092 432.628 143.697 432.14 143.954L431.563 144.269L430.825 144.686C430.566 144.834 430.296 144.991 430.016 145.157C428.415 146.104 426.815 147.132 425.325 148.202C423.159 149.759 421.419 151.269 420.271 152.659C418.586 154.699 418.367 156.137 419.601 157.217C420.507 158.01 421.746 158.149 423.327 157.692C424.515 157.349 425.816 156.688 427.153 155.801C427.886 155.315 428.582 154.793 429.217 154.27L429.702 153.862C429.834 153.747 429.937 153.654 430.007 153.588C430.41 153.212 431.042 153.233 431.419 153.637C431.795 154.04 431.773 154.672 431.37 155.049L431.157 155.242C430.987 155.393 430.761 155.588 430.485 155.814C429.8 156.377 429.05 156.94 428.256 157.467C426.765 158.456 425.292 159.204 423.882 159.612C421.705 160.24 419.774 160.024 418.286 158.721C416.049 156.762 416.446 154.154 418.731 151.386C420.008 149.84 421.867 148.227 424.16 146.579C425.703 145.471 427.352 144.412 429 143.437L429.833 142.952C429.966 142.875 430.096 142.801 430.223 142.73L431.208 142.187C431.696 141.929 432.3 142.116 432.557 142.604Z" fill="#E8AD8C"/>
    <path d="M433.332 152.651C433.883 152.658 434.325 153.111 434.318 153.663C434.31 154.214 433.858 154.656 433.306 154.649C431.969 154.632 430.1 155.528 427.701 157.541C422.667 161.766 421.259 164.794 422.378 165.732C423.537 166.705 426.836 165.83 429.282 163.348C430.153 162.464 431.534 163.646 430.795 164.644C430.601 164.907 430.405 165.164 430.209 165.417C425.44 171.547 421.856 173.705 413.882 176.392L412.586 176.821C405.38 179.17 402.525 181.328 399.96 188.013C399.763 188.529 399.185 188.786 398.67 188.588C398.155 188.39 397.898 187.813 398.096 187.297C400.846 180.128 404.088 177.558 411.435 175.097L413.334 174.468C418.844 172.607 422.08 171.043 425.155 168.115L425.388 167.889L425.371 167.895C423.797 168.274 422.333 168.148 421.308 167.427L421.095 167.264C418.582 165.155 420.541 160.943 426.418 156.01C429.149 153.719 431.425 152.626 433.332 152.651Z" fill="#E8AD8C"/>
    <path d="M408.868 136.075C409.363 136.118 409.742 136.514 409.778 136.994L409.777 137.157L408.529 151.67L408.748 152.271L408.831 152.513C409.117 153.351 409.403 154.289 409.67 155.308C410.608 158.896 411.079 162.535 410.824 165.957C410.554 169.567 409.482 172.695 407.453 175.17C407.103 175.596 406.474 175.658 406.047 175.308C405.621 174.958 405.559 174.329 405.909 173.902C407.652 171.776 408.591 169.037 408.832 165.808C409.069 162.636 408.625 159.207 407.738 155.814C407.484 154.845 407.212 153.953 406.941 153.159L406.674 152.411C406.64 152.319 406.611 152.245 406.589 152.189C406.55 152.092 406.526 151.99 406.519 151.886L406.52 151.73L407.788 136.985C407.83 136.49 408.226 136.111 408.706 136.075L408.868 136.075Z" fill="#E8AD8C"/>
    <path fill-rule="evenodd" clip-rule="evenodd" d="M410.988 178.637C405.858 173.808 397.957 173.745 393.051 178.495L298.32 270.212C289.903 278.935 292.899 293.071 302.004 301.643H299.566C308.747 310.29 325.469 309.897 333.616 300.777L412.585 196.094C416.64 190.878 415.95 183.307 410.988 178.637Z" fill="#FFE3D3"/>
    <path fill-rule="evenodd" clip-rule="evenodd" d="M329.816 303.404C340.226 295.174 341.996 280.064 333.771 269.648L253.636 168.161C245.414 157.748 230.308 155.976 219.904 164.204C209.494 172.431 207.724 187.547 215.949 197.96L296.084 299.446C304.306 309.86 319.409 311.634 329.816 303.404Z" fill="#FFE3D3"/>
    <path fill-rule="evenodd" clip-rule="evenodd" d="M249.919 240.982L215.947 197.959C207.759 187.589 209.537 172.398 219.902 164.205C230.265 156.009 245.447 157.79 253.635 168.163L287.285 210.776L249.919 240.982Z" style="fill: rgb(255, 170, 12);"/>
    <path fill-rule="evenodd" clip-rule="evenodd" d="M243.263 331.599C265.343 333.329 317.746 472.944 337.543 522.867C334.907 532.922 318.804 550.658 318.804 550.658C318.804 550.658 320.528 558.663 321.589 563.472C302.75 578.978 266.308 587.401 266.308 587.401L266.23 594.279C207.97 621.121 129.951 595.396 129.951 595.396C129.951 595.396 128.498 593.903 129.541 588.511C103.09 588.203 46.4484 554.623 46.4484 554.623L54.5 538.007L31.2012 514.149C31.2012 514.149 94.1116 398.343 113.477 365.953C130.475 337.518 146.42 329.33 146.42 329.33C146.42 329.33 204.088 328.527 243.263 331.599Z" style="fill: rgb(118, 88, 33);"/>
    <path opacity="0.6" d="M142.708 356.674C142.946 356.187 143.534 355.986 144.021 356.224C144.459 356.439 144.666 356.937 144.529 357.389L144.471 357.538L48.6764 553.354L49.5753 554.013L50.325 554.551C52.2171 555.894 54.4475 557.393 57.0019 559.008C64.3072 563.628 72.738 568.249 82.1801 572.562C96.8597 579.268 112.61 584.597 129.243 588.035C129.774 588.144 130.115 588.664 130.005 589.195C129.896 589.726 129.376 590.068 128.846 589.958C112.062 586.489 96.1729 581.114 81.3649 574.349C71.839 569.997 63.3309 565.334 55.9533 560.669C53.6558 559.216 51.6153 557.855 49.8414 556.613L49.1888 556.152C48.6499 555.769 48.1686 555.421 47.7459 555.108L46.9108 554.481C46.8821 554.458 46.8573 554.439 46.8363 554.423C46.5167 554.173 46.3884 553.757 46.4979 553.377L46.5595 553.218L142.708 356.674Z" fill="#6E7191"/>
    <path opacity="0.6" d="M259.097 396.47C259.553 396.297 260.058 396.487 260.294 396.897L260.362 397.041L323.48 564.118C323.642 564.548 323.484 565.034 323.1 565.286L322.648 565.576C322.282 565.809 321.849 566.078 321.353 566.381L320.084 567.145C318.981 567.801 317.764 568.503 316.439 569.243C311.144 572.199 305.213 575.154 298.787 577.912C288.302 582.411 277.538 585.937 266.754 588.119C266.222 588.226 265.705 587.883 265.597 587.351C265.49 586.819 265.833 586.301 266.365 586.194C277.007 584.041 287.645 580.556 298.013 576.107C304.374 573.377 310.244 570.452 315.483 567.527L317.001 566.669C318.223 565.97 319.335 565.313 320.33 564.705L321.36 564.066L258.526 397.736C258.353 397.279 258.543 396.775 258.952 396.538L259.097 396.47Z" fill="#6E7191"/>
    <path opacity="0.6" d="M218.086 335.331C218.617 335.225 219.134 335.57 219.241 336.102L221.632 348.153L226.351 372.17C226.869 374.821 227.397 377.526 227.934 380.281L230.727 394.658C235.843 421.066 240.921 447.705 245.749 473.597L248.443 488.107C249.129 491.817 249.805 495.489 250.471 499.123L253.132 513.713C258.82 545.083 263.574 572.534 267.186 595.105C267.262 595.578 266.986 596.036 266.533 596.19C263.676 597.162 260.784 598.062 257.858 598.891C222.575 608.887 184.937 608.322 149.393 601.371C144.187 600.353 139.45 599.267 135.248 598.176L134.209 597.903C132.871 597.548 131.672 597.215 130.62 596.909L128.668 596.319C128.247 596.183 127.975 595.785 127.989 595.355L128.007 595.193L171.935 374.889C172.041 374.357 172.558 374.012 173.089 374.118C173.568 374.214 173.895 374.642 173.878 375.115L173.86 375.274L130.106 594.708L131.7 595.176C132.604 595.435 133.61 595.712 134.712 596.005C139.126 597.177 144.174 598.349 149.769 599.443C185.037 606.341 222.381 606.901 257.323 597.001C259.493 596.386 261.644 595.732 263.776 595.038L265.116 594.591L263.752 586.187C259.852 562.405 254.842 533.888 248.929 501.594L246.513 488.464C246.056 485.992 245.595 483.503 245.13 480.998C239.915 452.914 234.38 423.836 228.8 395.031L224.038 370.569C222.883 364.667 221.779 359.044 220.733 353.735L217.316 336.486C217.21 335.955 217.554 335.437 218.086 335.331Z" fill="#6E7191"/>
    <path opacity="0.6" d="M194.698 339.096C195.185 339.125 195.569 339.503 195.619 339.973L195.623 340.133L185.299 523.354C185.268 523.896 184.805 524.31 184.264 524.281C183.777 524.252 183.393 523.874 183.343 523.403L183.339 523.244L193.663 340.023C193.694 339.481 194.157 339.067 194.698 339.096Z" fill="#4A4566"/>
    <path opacity="0.6" d="M167.234 335.057C167.394 334.539 167.944 334.249 168.462 334.41C168.928 334.555 169.209 335.015 169.143 335.483L169.108 335.639L130.347 460.515C130.187 461.033 129.637 461.322 129.119 461.161C128.653 461.016 128.372 460.556 128.438 460.088L128.473 459.932L167.234 335.057Z" fill="#4A4566"/>
    <path fill-rule="evenodd" clip-rule="evenodd" d="M142.203 331.595L143.869 318.969C143.869 318.969 193.697 319.266 242.57 316.817C243.806 322.421 245.223 332.51 245.223 332.51C241.114 329.133 196.721 338.996 142.203 331.595Z" style="fill: rgb(140, 118, 76);"/>
    <path opacity="0.6" d="M239.978 331.528C240.519 331.503 240.979 331.921 241.004 332.463C241.029 333.005 240.611 333.465 240.069 333.49C217.196 334.561 195.018 335.021 175.437 334.982L170.073 334.958C164.49 334.918 159.484 334.836 155.424 334.725L152.817 334.644C151.189 334.588 149.862 334.529 148.919 334.471L147.988 334.403C147.865 334.392 147.758 334.381 147.667 334.37C147.492 334.349 147.366 334.328 147.253 334.294L147.176 334.285C147.085 334.262 147.004 334.177 146.603 333.748L146.751 332.943C146.862 332.418 146.932 332.411 147.194 332.386C147.399 332.315 147.611 332.316 147.804 332.376L147.919 332.421L148.358 332.463L149.039 332.51L150.494 332.587C151.189 332.619 151.992 332.651 152.888 332.682L155.48 332.761C160.285 332.893 166.424 332.984 173.28 333.011L177.624 333.02C196.633 333.022 217.983 332.558 239.978 331.528Z" fill="#6E7191"/>
    <path fill-rule="evenodd" clip-rule="evenodd" d="M238.936 191.806C243.996 202.839 253.369 221.832 254.534 234.378C256.427 254.717 243.189 269.854 243.189 269.854C243.189 269.854 243.057 263.872 241.772 316.571C181.146 327.214 142.493 315.898 142.493 315.898L143.676 301.929L133.832 268.908C133.832 268.908 127.846 256.61 115.556 229.173C107.012 210.103 107.607 186.455 108.763 173.814C109.258 168.397 113.03 163.844 118.265 162.373C136.546 157.227 143.468 157.066 143.468 157.066L145.19 144.998C145.485 142.932 147.253 141.397 149.34 141.397H193.904C195.818 141.397 197.491 142.695 197.964 144.55L201.231 157.293L228.812 160.265C233.14 161.114 236.407 167.136 236.856 171.528L238.936 191.806Z" style="fill: rgb(255, 170, 12);"/>
    <path opacity="0.1" d="M196.077 156.921C196.505 156.921 196.852 157.269 196.852 157.697C196.852 158.078 196.578 158.395 196.216 158.461L196.077 158.473H155.95C155.522 158.473 155.175 158.126 155.175 157.697C155.175 157.316 155.449 157 155.811 156.934L155.95 156.921H196.077Z" fill="white"/>
    <path d="M142.375 153.692C142.757 153.389 143.295 153.416 143.644 153.734L143.753 153.851L186.111 207.293L202.551 157.443C202.704 156.979 203.169 156.706 203.636 156.78L203.791 156.818C204.254 156.971 204.527 157.436 204.453 157.903L204.415 158.058L187.405 209.638C187.177 210.331 186.316 210.527 185.807 210.053L185.704 209.941L142.215 155.072C141.879 154.647 141.95 154.029 142.375 153.692Z" fill="#CCD7EE"/>
    <path fill-rule="evenodd" clip-rule="evenodd" d="M198.615 213.481C203.065 220.991 201.061 230.406 194.136 234.515C187.213 238.624 177.994 235.867 173.544 228.357C169.094 220.847 171.1 211.429 178.023 207.322C184.948 203.213 194.167 205.97 198.615 213.481Z" fill="#CCD7EE"/>
    <path fill-rule="evenodd" clip-rule="evenodd" d="M200.215 213.444C204.663 220.954 202.658 230.369 195.736 234.478C188.811 238.587 179.591 235.83 175.143 228.32C170.693 220.81 172.698 211.392 179.62 207.285C186.545 203.176 195.765 205.934 200.215 213.444Z" fill="#E4EBF7"/>
    <path fill-rule="evenodd" clip-rule="evenodd" d="M197.389 214.753C200.844 220.584 199.286 227.894 193.912 231.083C188.535 234.272 181.378 232.133 177.923 226.301C174.468 220.472 176.023 213.16 181.398 209.971C186.774 206.779 193.933 208.921 197.389 214.753Z" style="fill: rgb(255, 170, 12);"/>
    <path opacity="0.1" d="M108.785 173.037C109.213 173.05 109.551 173.407 109.539 173.836L109.473 176.811L109.463 177.378C109.362 183.309 109.351 189.576 109.49 195.441L109.537 197.197C109.724 203.527 110.089 208.615 110.66 212.042C111.308 215.939 113.804 222.564 117.672 231.101L118.713 233.373C119.068 234.141 119.432 234.919 119.804 235.707C121.443 239.176 123.176 242.706 124.927 246.173L126.243 248.759C126.884 250.009 127.486 251.172 128.039 252.23L129.22 254.492L145.119 301.927L145.155 302.249L143.806 315.991L144.013 316.032C144.6 316.149 145.271 316.277 146.026 316.414L146.607 316.518C149.451 317.021 152.748 317.525 156.457 317.995C181.766 321.203 210.411 321.22 239.918 315.957L241.135 315.733L241.279 310.514L241.894 292.503L242.658 271.484L242.755 271.138L243.224 270.261L243.696 269.352C243.942 268.873 244.202 268.358 244.473 267.809C245.766 265.194 247.06 262.357 248.266 259.401C249.982 255.2 251.377 251.11 252.337 247.27C253.265 243.556 253.76 240.178 253.76 237.215C253.76 229.801 252.777 224.11 250.571 218.24C249.467 215.301 248.049 212.266 246.006 208.391L244.294 205.226L238.257 194.31L238.162 193.965L237.687 181.429C237.67 181.001 238.004 180.641 238.432 180.624C238.812 180.61 239.139 180.872 239.218 181.231L239.236 181.37L239.705 193.721L245.331 203.892L246.957 206.874C249.256 211.185 250.818 214.485 252.023 217.694C254.296 223.743 255.311 229.618 255.311 237.215C255.311 240.318 254.798 243.818 253.841 247.646C252.861 251.566 251.444 255.723 249.702 259.988C248.48 262.981 247.172 265.85 245.863 268.497L245.329 269.564C245.071 270.074 244.826 270.548 244.596 270.984L244.201 271.724L242.913 307.948C242.773 312.242 242.692 315.084 242.681 316.168L242.68 316.384C242.68 316.757 242.413 317.078 242.046 317.146C211.715 322.778 182.247 322.828 156.262 319.534C152.901 319.108 149.874 318.655 147.211 318.198L146.337 318.046C145.532 317.904 144.81 317.769 144.172 317.645L142.797 317.366C142.462 317.292 142.221 317.008 142.192 316.677L142.193 316.532L143.595 302.263L127.802 255.105L126.993 253.574C126.457 252.555 125.871 251.427 125.244 250.209L124.863 249.467C122.661 245.168 120.459 240.723 118.402 236.37C117.655 234.787 116.939 233.242 116.259 231.742L115.54 230.141C112.027 222.253 109.766 216.117 109.13 212.297L108.976 211.3C108.43 207.496 108.096 202.092 107.94 195.478C107.82 190.43 107.811 185.09 107.875 179.92L107.923 176.782L107.988 173.792C108.001 173.364 108.357 173.026 108.785 173.037Z" fill="white"/>
    <path fill-rule="evenodd" clip-rule="evenodd" d="M48.885 321.057L48.6435 320.927C36.7661 314.544 32.3088 299.732 38.6876 287.847L100.384 172.902C106.763 161.017 121.566 156.557 133.443 162.94L133.682 163.069C145.56 169.452 150.02 184.265 143.638 196.149L81.9446 311.094C75.5634 322.979 60.7624 327.439 48.885 321.057Z" fill="#FFE3D3"/>
    <path fill-rule="evenodd" clip-rule="evenodd" d="M118.024 243.874L144.527 194.497C150.916 182.595 146.412 167.626 134.515 161.231C122.621 154.838 107.659 159.347 101.27 171.249L75.0183 220.158L118.024 243.874Z" style="fill: rgb(255, 170, 12);"/>
    <path opacity="0.1" d="M144.469 194.465C144.671 194.088 145.141 193.946 145.519 194.149C145.854 194.329 146.003 194.721 145.89 195.071L145.835 195.2L119.332 244.576C119.15 244.915 118.755 245.063 118.404 244.945L118.275 244.889L75.2711 221.173C74.8961 220.966 74.7596 220.494 74.9663 220.119C75.1501 219.785 75.5431 219.64 75.8916 219.757L76.0197 219.814L118.335 243.151L144.469 194.465Z" fill="white"/>
  </g>
  <path d="M419.298 5.05737H295.714C293.372 5.05737 291.474 6.95578 291.474 9.29757V95.1911C291.474 97.5329 293.372 99.4313 295.714 99.4313H419.298C421.64 99.4313 423.538 97.5329 423.538 95.1911V9.29757C423.538 6.95578 421.64 5.05737 419.298 5.05737Z" style="fill: rgb(255, 170, 12);"/>
  <path d="M294.981 8.4436C293.045 8.4436 291.474 10.1553 291.474 12.2658L291.496 23.5196L354.493 63.2477C356.971 64.968 360.257 64.968 362.735 63.2477L423.664 23.5196L423.686 12.2658C423.686 10.1553 422.116 8.4436 420.179 8.4436H294.981Z" fill="#F2F1FF"/>
  <path d="M294.98 5.05737C293.045 5.05737 291.474 6.76908 291.474 8.87954L291.496 20.1334L354.493 59.8614C356.971 61.5818 360.257 61.5818 362.735 59.8614L423.663 20.1334L423.685 8.87954C423.685 6.76908 422.116 5.05737 420.179 5.05737H294.98Z" style="fill: rgb(255, 170, 12);"/>
</svg>